<svg width="29" height="29" viewBox="0 0 29 29" fill="none" xmlns="http://www.w3.org/2000/svg">
<path d="M22.6562 11.7812C22.6562 9.61808 21.7969 7.5435 20.2673 6.01391C18.7377 4.48432 16.6632 3.625 14.5 3.625C12.3368 3.625 10.2623 4.48432 8.73266 6.01391C7.20307 7.5435 6.34375 9.61808 6.34375 11.7812C6.34375 15.1271 9.02081 19.488 14.5 24.7116C19.9792 19.488 22.6562 15.1271 22.6562 11.7812ZM14.5 27.1875C7.85356 21.1464 4.53125 16.0098 4.53125 11.7812C4.53125 9.13737 5.58153 6.60178 7.45103 4.73228C9.32053 2.86278 11.8561 1.8125 14.5 1.8125C17.1439 1.8125 19.6795 2.86278 21.549 4.73228C23.4185 6.60178 24.4688 9.13737 24.4688 11.7812C24.4688 16.0098 21.1464 21.1464 14.5 27.1875Z" fill="#939A13"/>
<path d="M14.5 12.6875C14.9807 12.6875 15.4417 12.4965 15.7816 12.1566C16.1215 11.8167 16.3125 11.3557 16.3125 10.875C16.3125 10.3943 16.1215 9.93328 15.7816 9.59337C15.4417 9.25346 14.9807 9.0625 14.5 9.0625C14.0193 9.0625 13.5583 9.25346 13.2184 9.59337C12.8785 9.93328 12.6875 10.3943 12.6875 10.875C12.6875 11.3557 12.8785 11.8167 13.2184 12.1566C13.5583 12.4965 14.0193 12.6875 14.5 12.6875ZM14.5 14.5C13.5386 14.5 12.6166 14.1181 11.9367 13.4383C11.2569 12.7584 10.875 11.8364 10.875 10.875C10.875 9.91359 11.2569 8.99156 11.9367 8.31174C12.6166 7.63192 13.5386 7.25 14.5 7.25C15.4614 7.25 16.3834 7.63192 17.0633 8.31174C17.7431 8.99156 18.125 9.91359 18.125 10.875C18.125 11.8364 17.7431 12.7584 17.0633 13.4383C16.3834 14.1181 15.4614 14.5 14.5 14.5ZM24.2875 19.9375L27.1875 27.1875H19.0312V25.375H9.96875V27.1875H1.8125L4.7125 19.9375H24.2875ZM22.3354 19.9375H6.66456L4.48956 25.375H24.5104L22.3354 19.9375Z" fill="#939A13"/>
</svg>
