<svg width="29" height="29" viewBox="0 0 29 29" fill="none" xmlns="http://www.w3.org/2000/svg">
<path d="M12.0846 26.5835V18.6447M14.5013 13.2918H14.5134M14.5013 8.4585H14.5134M16.918 18.6447V26.5835M18.1263 19.3335C17.0805 18.5492 15.8085 18.1252 14.5013 18.1252C13.1941 18.1252 11.9221 18.5492 10.8763 19.3335M19.3346 13.2918H19.3467M19.3346 8.4585H19.3467M9.66797 13.2918H9.68005M9.66797 8.4585H9.68005" stroke="#939A13" stroke-width="2" stroke-linecap="round" stroke-linejoin="round"/>
<path d="M21.7507 2.41675H7.25065C5.91596 2.41675 4.83398 3.49873 4.83398 4.83341V24.1667C4.83398 25.5014 5.91596 26.5834 7.25065 26.5834H21.7507C23.0853 26.5834 24.1673 25.5014 24.1673 24.1667V4.83341C24.1673 3.49873 23.0853 2.41675 21.7507 2.41675Z" stroke="#939A13" stroke-width="2" stroke-linecap="round" stroke-linejoin="round"/>
</svg>
