<svg width="27" height="25" viewBox="0 0 27 25" fill="none" xmlns="http://www.w3.org/2000/svg">
<path d="M25.521 14.1981C25.2966 14.4208 25.0305 14.5972 24.738 14.717C24.4454 14.8369 24.1321 14.8979 23.816 14.8966H16.4075L12.9136 23.0325C12.8781 23.1214 12.8233 23.2013 12.7532 23.2665C12.683 23.3316 12.5993 23.3804 12.508 23.4092L10.3836 24.1228C10.2658 24.1607 10.1401 24.1666 10.0193 24.14C9.89846 24.1133 9.7869 24.0551 9.69599 23.9711C9.60508 23.8872 9.53809 23.7807 9.50187 23.6624C9.46565 23.5441 9.4615 23.4183 9.48984 23.2979L11.5991 14.9104L4.38722 14.5061L3.18409 16.1135H0.780595C1.10023 14.9054 1.42473 13.6986 1.7541 12.4931C1.7541 12.4931 1.34847 11.0177 0.780595 8.88647H3.18409L4.38722 10.4952L11.5991 10.0882L9.48847 1.7021C9.46058 1.58174 9.46505 1.45614 9.50142 1.33806C9.5378 1.21999 9.60478 1.11365 9.69557 1.02984C9.78636 0.946041 9.89771 0.887764 10.0183 0.860937C10.1389 0.834109 10.2645 0.839686 10.3822 0.8771L12.508 1.59073C12.5993 1.61956 12.683 1.66831 12.7532 1.73347C12.8233 1.79862 12.8781 1.87855 12.9136 1.96748L16.4075 10.1034H23.816C24.1321 10.1021 24.4454 10.1631 24.738 10.2829C25.0305 10.4028 25.2966 10.5791 25.521 10.8019C25.9669 11.2546 26.2168 11.8645 26.2168 12.5C26.2168 13.1354 25.9669 13.7454 25.521 14.1981Z" stroke="#939A13" stroke-width="1.3" stroke-linecap="round" stroke-linejoin="round"/>
</svg>
