<svg width="26" height="25" viewBox="0 0 26 25" fill="none" xmlns="http://www.w3.org/2000/svg">
<path d="M7.49219 13.8187C7.42563 13.6243 7.28514 13.4639 7.10116 13.3724C6.91718 13.2808 6.70453 13.2654 6.50928 13.3295C6.31403 13.3936 6.15191 13.5321 6.05804 13.7149C5.96418 13.8978 5.94613 14.1102 6.00781 14.3063C8.28906 21.2547 17.8094 21.2938 19.9953 14.2953C20.0298 14.1964 20.0441 14.0916 20.0372 13.987C20.0304 13.8825 20.0026 13.7804 19.9555 13.6868C19.9084 13.5932 19.843 13.5101 19.7631 13.4423C19.6833 13.3745 19.5906 13.3235 19.4906 13.2923C19.3906 13.261 19.2854 13.2502 19.1811 13.2605C19.0768 13.2708 18.9757 13.3019 18.8837 13.352C18.7918 13.4022 18.7108 13.4703 18.6457 13.5524C18.5806 13.6344 18.5326 13.7287 18.5047 13.8297C16.7859 19.3297 9.31406 19.3703 7.49219 13.8187ZM19.25 10.1562C19.0312 10.1562 18.7969 10.0625 18.6562 9.875C18.6562 9.875 18.2031 9.375 17.2969 9.375C16.3906 9.375 15.9531 9.85938 15.9375 9.89062C15.6562 10.2031 15.1563 10.25 14.8438 9.96875C14.6884 9.83815 14.5913 9.65125 14.5738 9.44909C14.5562 9.24693 14.6196 9.04607 14.75 8.89062C14.8438 8.78125 15.6875 7.82813 17.2969 7.82813C18.9062 7.82813 19.7656 8.78125 19.8438 8.89062C20.125 9.21875 20.0781 9.71875 19.75 9.98438C19.6097 10.1005 19.432 10.1616 19.25 10.1562ZM10.0625 9.875C10.2031 10.0625 10.4375 10.1562 10.6562 10.1562C10.8281 10.1562 11.0156 10.1094 11.1562 9.98438C11.4844 9.71875 11.5312 9.21875 11.25 8.89062C11.1719 8.78125 10.3125 7.82813 8.70312 7.82813C7.09375 7.82813 6.25 8.78125 6.15625 8.89062C5.89062 9.20312 5.92188 9.6875 6.25 9.96875C6.5625 10.25 7.0625 10.2031 7.34375 9.89062C7.35938 9.85938 7.79688 9.375 8.70312 9.375C9.60938 9.375 10.0625 9.875 10.0625 9.875ZM25.5 12.5C25.5 15.8152 24.183 18.9946 21.8388 21.3388C19.4946 23.683 16.3152 25 13 25C9.68479 25 6.50537 23.683 4.16117 21.3388C1.81696 18.9946 0.5 15.8152 0.5 12.5C0.5 9.18479 1.81696 6.00537 4.16117 3.66117C6.50537 1.31696 9.68479 0 13 0C16.3152 0 19.4946 1.31696 21.8388 3.66117C24.183 6.00537 25.5 9.18479 25.5 12.5ZM23.9375 12.5C23.9375 9.59919 22.7852 6.8172 20.734 4.76602C18.6828 2.71484 15.9008 1.5625 13 1.5625C10.0992 1.5625 7.3172 2.71484 5.26602 4.76602C3.21484 6.8172 2.0625 9.59919 2.0625 12.5C2.0625 15.4008 3.21484 18.1828 5.26602 20.234C7.3172 22.2852 10.0992 23.4375 13 23.4375C15.9008 23.4375 18.6828 22.2852 20.734 20.234C22.7852 18.1828 23.9375 15.4008 23.9375 12.5Z" fill="#939A13"/>
</svg>
